<svg width="214" height="214" viewBox="0 0 214 214" fill="none" xmlns="http://www.w3.org/2000/svg">
<path d="M39 17C22 47 39 17 22 47C5 17 22 47 5 17C22 17 22 17 39 17Z" fill="#EFBEFB"/>
<path d="M5 17C22 47 5 17 22 47C39 17 22 47 39 17L5 17Z" fill="#EFBEFB"/>
<path d="M22 47C39 17 22 47 39 17C56 47 39 17 56 47C39 47 39 47 22 47Z" fill="#D350F4"/>
<path d="M56 47C39 17 56 47 39 17C22 47 39 17 22 47L56 47Z" fill="#D350F4"/>
<path d="M56 47C39 77 56 47 39 77C22 47 39 77 22 47C39 47 39 47 56 47Z" fill="#BE00EE"/>
<path d="M22 47C39 77 22 47 39 77C56 47 39 77 56 47L22 47Z" fill="#BE00EE"/>
<path d="M39 77C56 47 39 77 56 47C73 77 56 47 73 77C56 77 56 77 39 77Z" fill="#AB03D5"/>
<path d="M73 77C56 47 73 77 56 47C39 77 56 47 39 77L73 77Z" fill="#AB03D5"/>
<path d="M73 77C56 107 73 77 56 107C39 77 56 107 39 77C56 77 56 77 73 77Z" fill="#8B01AE"/>
<path d="M39 77C56 107 39 77 56 107C73 77 56 107 73 77L39 77Z" fill="#8B01AE"/>
<path d="M73 137C90 107 73 137 90 107C107 137 90 107 107 137C90 137 90 137 73 137Z" fill="#AB03D5"/>
<path d="M107 137C90 107 107 137 90 107C73 137 90 107 73 137L107 137Z" fill="#AB03D5"/>
<path d="M90 107C73 137 90 107 73 137C56 107 73 137 56 107C73 107 73 107 90 107Z" fill="#8B01AE"/>
<path d="M56 107C73 137 56 107 73 137C90 107 73 137 90 107L56 107Z" fill="#8B01AE"/>
<path d="M107 137C90 167 107 137 90 167C73 137 90 167 73 137C90 137 90 137 107 137Z" fill="#BE00EE"/>
<path d="M73 137C90 167 73 137 90 167C107 137 90 167 107 137L73 137Z" fill="#BE00EE"/>
<path d="M56 107C73 77 56 107 73 77C90 107 73 77 90 107C73 107 73 107 56 107Z" fill="#63017B"/>
<path d="M90 107C73 77 90 107 73 77C56 107 73 77 56 107L90 107Z" fill="#63017B"/>
<path d="M175 17C192 47 175 17 192 47C209 17 192 47 209 17C192 17 192 17 175 17Z" fill="#EFBEFB"/>
<path d="M209 17C192 47 209 17 192 47C175 17 192 47 175 17L209 17Z" fill="#EFBEFB"/>
<path d="M192 47C175 17 192 47 175 17C158 47 175 17 158 47C175 47 175 47 192 47Z" fill="#D350F4"/>
<path d="M158 47C175 17 158 47 175 17C192 47 175 17 192 47L158 47Z" fill="#D350F4"/>
<path d="M158 47C175 77 158 47 175 77C192 47 175 77 192 47C175 47 175 47 158 47Z" fill="#BE00EE"/>
<path d="M192 47C175 77 192 47 175 77C158 47 175 77 158 47L192 47Z" fill="#BE00EE"/>
<path d="M141 17C158 47 141 17 158 47C175 17 158 47 175 17C158 17 158 17 141 17Z" fill="#BE00EE"/>
<path d="M175 17C158 47 175 17 158 47C141 17 158 47 141 17L175 17Z" fill="#BE00EE"/>
<path d="M175 77C158 47 175 77 158 47C141 77 158 47 141 77C158 77 158 77 175 77Z" fill="#AB03D5"/>
<path d="M141 77C158 47 141 77 158 47C175 77 158 47 175 77L141 77Z" fill="#AB03D5"/>
<path d="M158 47C141 17 158 47 141 17C124 47 141 17 124 47C141 47 141 47 158 47Z" fill="#AB03D5"/>
<path d="M124 47C141 17 124 47 141 17C158 47 141 17 158 47L124 47Z" fill="#AB03D5"/>
<path d="M141 77C158 107 141 77 158 107C175 77 158 107 175 77C158 77 158 77 141 77Z" fill="#8B01AE"/>
<path d="M175 77C158 107 175 77 158 107C141 77 158 107 141 77L175 77Z" fill="#8B01AE"/>
<path d="M107 17C124 47 107 17 124 47C141 17 124 47 141 17C124 17 124 17 107 17Z" fill="#8B01AE"/>
<path d="M141 17C124 47 141 17 124 47C107 17 124 47 107 17L141 17Z" fill="#8B01AE"/>
<path d="M90 47C107 77 90 47 107 77C124 47 107 77 124 47C107 47 107 47 90 47Z" fill="#8B01AE"/>
<path d="M124 47C107 77 124 47 107 77C90 47 107 77 90 47L124 47Z" fill="#8B01AE"/>
<path d="M141 137C124 107 141 137 124 107C107 137 124 107 107 137C124 137 124 137 141 137Z" fill="#AB03D5"/>
<path d="M107 137C124 107 107 137 124 107C141 137 124 107 141 137L107 137Z" fill="#AB03D5"/>
<path d="M124 107C141 137 124 107 141 137C158 107 141 137 158 107C141 107 141 107 124 107Z" fill="#8B01AE"/>
<path d="M158 107C141 137 158 107 141 137C124 107 141 137 124 107L158 107Z" fill="#8B01AE"/>
<path d="M107 137C124 167 107 137 124 167C141 137 124 167 141 137C124 137 124 137 107 137Z" fill="#BE00EE"/>
<path d="M141 137C124 167 141 137 124 167C107 137 124 167 107 137L141 137Z" fill="#BE00EE"/>
<path d="M158 107C141 77 158 107 141 77C124 107 141 77 124 107C141 107 141 107 158 107Z" fill="#63017B"/>
<path d="M124 107C141 77 124 107 141 77C158 107 141 77 158 107L124 107Z" fill="#63017B"/>
<path d="M124 47C107 17 124 47 107 17C90 47 107 17 90 47C107 47 107 47 124 47Z" fill="#63017B"/>
<path d="M90 47C107 17 90 47 107 17C124 47 107 17 124 47L90 47Z" fill="#63017B"/>
<path d="M90 167C107 137 90 167 107 137C124 167 107 137 124 167C107 167 107 167 90 167Z" fill="#D350F4"/>
<path d="M124 167C107 137 124 167 107 137C90 167 107 137 90 167L124 167Z" fill="#D350F4"/>
<path d="M124 167C107 197 124 167 107 197C90 167 107 197 90 167C107 167 107 167 124 167Z" fill="#EFBEFB"/>
<path d="M90 167C107 197 90 167 107 197C124 167 107 197 124 167L90 167Z" fill="#EFBEFB"/>
<path d="M63.843 52.7843C63.3453 51.9016 63.4563 51.0124 64.1759 50.1169C64.9086 49.2446 66.297 48.2321 68.3411 47.0796C71.3608 45.3769 74.4719 44.1891 77.6742 43.5162C78.4657 43.3455 79.1434 43.4072 79.7074 43.7015C80.3076 44.006 80.85 44.5879 81.3346 45.4474C81.5966 45.912 81.7219 46.2699 81.7105 46.5212C81.6991 46.7725 81.5309 46.9899 81.2057 47.1732C80.834 47.3828 79.8995 47.6801 78.4023 48.0651C77.3421 48.3567 76.4244 48.6293 75.6489 48.8828C74.8967 49.1233 73.9834 49.4852 72.9089 49.9685C75.0744 49.5741 77.0266 49.453 78.7655 49.6052C80.5176 49.7807 81.951 50.1511 83.0657 50.7165C84.2168 51.292 85.0215 51.9863 85.4799 52.7993C85.9383 53.6123 86.0734 54.2862 85.8851 54.8209C85.7099 55.3789 85.239 55.874 84.4725 56.3062C83.7291 56.7253 82.2575 57.2643 80.0574 57.9231C79.1164 58.2088 78.4172 58.4347 77.9598 58.6007C81.4718 58.1512 84.2776 58.2682 86.3774 58.9517C88.4771 59.6352 89.8741 60.5925 90.5682 61.8236C91.4195 63.3335 91.0903 64.5141 89.5804 65.3654C88.6745 65.8762 86.8928 66.544 84.2353 67.3689C81.9656 68.067 80.5055 68.5995 79.8551 68.9662C78.926 69.4901 78.6513 70.0888 79.0311 70.7625C79.2931 71.2271 79.8796 71.6158 80.7907 71.9286C81.7381 72.2516 83.1519 72.5871 85.0319 72.9353C85.5143 73.0307 85.8537 73.2526 86.0502 73.601C86.2205 73.903 86.2121 74.2139 86.025 74.5336C85.851 74.8766 85.5201 75.1857 85.0323 75.4607C84.1032 75.9846 83.2587 76.1699 82.4988 76.0167C80.7045 75.7121 79.085 75.2017 77.6404 74.4855C76.2088 73.7926 75.0805 72.7145 74.2554 71.2511C73.5874 70.0664 73.42 68.9822 73.7531 67.9984C74.1094 67.0016 74.938 66.1364 76.2388 65.4029C76.8892 65.0362 78.1423 64.544 79.9981 63.9262C81.6318 63.403 82.7274 62.9843 83.2849 62.6699C83.6565 62.4604 83.7703 62.2278 83.6263 61.9723C83.456 61.6703 82.8188 61.4633 81.7147 61.3511C80.6338 61.2258 79.2974 61.2446 77.7055 61.4075C76.1136 61.5703 74.5109 61.877 72.8975 62.3275C71.6385 62.7007 70.7249 62.8178 70.1568 62.6789C69.6018 62.5633 69.1147 62.1338 68.6956 61.3905C68.2634 60.6239 68.296 59.8402 68.7934 59.0393C69.3272 58.2485 70.1167 57.5585 71.162 56.9691C72.0447 56.4714 73.3878 55.8672 75.1912 55.1565C76.7826 54.5041 77.8106 54.0469 78.2752 53.7849C78.6468 53.5754 78.7606 53.3429 78.6166 53.0873C78.4201 52.7389 77.7531 52.5333 76.6157 52.4706C75.4782 52.4078 74.115 52.4876 72.526 52.71C70.9502 52.9557 69.45 53.2812 68.0253 53.6864C66.7895 54.0465 65.8759 54.1636 65.2846 54.0379C64.7296 53.9222 64.249 53.5043 63.843 52.7843ZM79.484 80.5242C78.6719 79.084 78.5462 77.6395 79.1069 76.1907C79.6676 74.7418 80.7958 73.5394 82.4915 72.5833C84.3498 71.5355 86.3459 70.9764 88.4797 70.9059C90.6368 70.8224 92.6142 71.2075 94.412 72.0613C96.2461 72.9252 97.615 74.1585 98.5187 75.7613C98.8068 76.2723 98.8922 76.6681 98.7748 76.9485C98.6938 77.2392 98.4305 77.5866 97.9849 77.9909C98.3529 78.4263 98.6875 78.9111 98.9887 79.4454C99.6305 80.5836 99.5449 81.3819 98.7319 81.8403C98.2441 82.1154 96.9844 82.596 94.9529 83.2823C91.9803 84.2542 89.9714 85.0348 88.9261 85.6242C88.5777 85.8207 88.3448 86.0591 88.2274 86.3396C88.1231 86.6433 88.1496 86.9346 88.3068 87.2133C88.5556 87.6546 89.1356 88.0317 90.0467 88.3446C90.981 88.6443 92.3882 88.9683 94.2683 89.3164C94.7507 89.4118 95.0901 89.6337 95.2865 89.9822C95.4568 90.2841 95.4484 90.595 95.2613 90.9148C95.0874 91.2578 94.7565 91.5668 94.2687 91.8418C93.3395 92.3657 92.495 92.5511 91.7351 92.3979C90.0135 92.1134 88.4449 91.6662 87.0294 91.0561C85.614 90.446 84.6246 89.6415 84.0615 88.6426C83.6292 87.8761 83.4853 87.0236 83.6296 86.085C83.8102 85.1566 84.2618 84.2744 84.9844 83.4384C82.3521 83.3307 80.5186 82.3593 79.484 80.5242ZM83.7104 79.7943C83.9985 80.3054 84.5755 80.6229 85.4414 80.7469C86.3073 80.871 87.2986 80.7559 88.4153 80.4018L95.5533 78.0762C94.98 77.1137 94.0976 76.4173 92.906 75.9871C91.7507 75.567 90.4548 75.4405 89.0183 75.6075C87.5819 75.7746 86.2132 76.2249 84.9124 76.9583C84.1923 77.3643 83.7367 77.8049 83.5454 78.2801C83.3672 78.7786 83.4222 79.2833 83.7104 79.7943ZM107.58 86.6198C107.03 85.6442 106.838 84.7881 107.004 84.0514C107.194 83.3017 107.695 82.6976 108.508 82.2392C109.321 81.7808 110.172 81.7145 111.06 82.0405C111.984 82.3766 112.714 83.0208 113.251 83.9732C113.736 84.8326 113.92 85.6474 113.803 86.4174C113.686 87.1874 113.244 87.7885 112.478 88.2207C111.549 88.7446 110.635 88.8617 109.737 88.5721C108.862 88.2694 108.143 87.6186 107.58 86.6198ZM88.7122 96.8909C87.8608 95.3811 87.773 93.9765 88.4486 92.6771C89.1373 91.401 90.3643 90.2653 92.1297 89.2699C93.175 88.6805 94.5827 88.0552 96.3528 87.3939C98.1592 86.7427 99.8887 86.2267 101.541 85.8459C102.403 85.6358 103.071 85.6264 103.546 85.8177C104.021 86.009 104.475 86.4879 104.907 87.2544C105.575 88.4391 105.514 89.2541 104.724 89.6994C104.144 90.0268 102.672 90.5658 100.309 91.3163C97.4399 92.1995 95.5521 92.8965 94.6462 93.4073C93.9494 93.8002 93.4675 94.1944 93.2006 94.5897C92.9337 94.9851 92.9247 95.4035 93.1736 95.8448C93.4093 96.263 93.9944 96.6219 94.9287 96.9216C95.8631 97.2214 97.2521 97.5403 99.0958 97.8783C99.5782 97.9737 99.9176 98.1956 100.114 98.544C100.284 98.846 100.276 99.1569 100.089 99.4766C99.9149 99.8196 99.584 100.129 99.0962 100.404C98.1671 100.928 97.3225 101.113 96.5627 100.96C92.4554 100.245 89.8385 98.8886 88.7122 96.8909ZM101.895 108.381C102.272 108.506 102.532 108.696 102.676 108.951C102.833 109.23 102.795 109.542 102.561 109.888C102.364 110.244 102.045 110.547 101.604 110.796C100.628 111.346 99.6533 111.436 98.6796 111.067C96.9998 110.422 95.7276 109.333 94.8632 107.8C93.6189 105.593 93.6262 103.462 94.885 101.405C96.167 99.335 98.2947 97.4619 101.268 95.7854C104.102 94.1875 107.534 92.7271 111.563 91.404C115.606 90.1041 119.328 89.4292 122.728 89.3793C126.142 89.3525 128.405 90.3264 129.519 92.3008C130.147 93.4158 130.116 94.5816 129.424 95.7981C128.769 97.0248 127.477 98.1817 125.549 99.2688C122.785 100.827 119.147 101.868 114.636 102.391C110.138 102.938 105.372 102.901 100.338 102.28C99.4769 102.979 98.9554 103.656 98.773 104.31C98.5906 104.964 98.7025 105.651 99.1085 106.371C99.3311 106.766 99.6961 107.141 100.203 107.498C100.724 107.878 101.288 108.173 101.895 108.381ZM125.637 93.4792C125.336 92.945 124.031 92.8846 121.723 93.298C119.416 93.7115 116.689 94.4682 113.544 95.5681C110.399 96.668 107.5 97.9348 104.849 99.3683C108.497 99.4851 111.955 99.2652 115.223 98.7084C118.514 98.1385 121.286 97.2184 123.539 95.9479C125.304 94.9525 126.004 94.1297 125.637 93.4792Z" fill="#8B01AE"/>
</svg>
